<?xml version="1.0" standalone="no"?>
<!DOCTYPE svg PUBLIC "-//W3C//DTD SVG 20010904//EN"
 "http://www.w3.org/TR/2001/REC-SVG-20010904/DTD/svg10.dtd">
<svg version="1.0" xmlns="http://www.w3.org/2000/svg"
 width="712.000000pt" height="628.000000pt" viewBox="0 0 712.000000 628.000000"
 preserveAspectRatio="xMidYMid meet">

<g transform="translate(0.000000,628.000000) scale(0.100000,-0.100000)"
fill="#000000" stroke="none">
<path d="M3474 5703 c-50 -74 -55 -87 -16 -43 17 19 31 39 32 43 0 13 27 37
34 30 3 -4 6 -15 6 -25 0 -11 7 -18 20 -18 12 0 33 -12 47 -27 36 -39 26 -18
-22 44 -22 29 -45 52 -51 52 -6 1 -29 -25 -50 -56z"/>
<path d="M3562 5605 c0 -16 2 -22 5 -12 2 9 2 23 0 30 -3 6 -5 -1 -5 -18z"/>
<path d="M3630 5622 c0 -5 10 -17 22 -28 l21 -19 -18 28 c-18 28 -25 33 -25
19z"/>
<path d="M3398 5595 c-10 -13 -18 -30 -18 -37 0 -7 9 2 21 21 24 39 22 49 -3
16z"/>
<path d="M3582 5530 c0 -19 2 -27 5 -17 2 9 2 25 0 35 -3 9 -5 1 -5 -18z"/>
<path d="M3680 5551 c0 -5 5 -13 11 -16 10 -7 113 -140 134 -174 6 -9 12 -18
15 -21 3 -3 16 -18 28 -34 12 -16 22 -25 22 -21 0 10 -81 119 -92 123 -4 2 -8
10 -8 17 0 7 -3 15 -8 17 -4 2 -23 23 -42 48 -45 59 -60 74 -60 61z"/>
<path d="M3348 5515 c-25 -34 -22 -43 3 -11 12 15 20 29 18 31 -2 1 -12 -7
-21 -20z"/>
<path d="M3290 5432 c-40 -59 -42 -62 -30 -62 5 0 10 5 10 11 0 6 6 17 13 24
31 36 38 46 35 55 -2 5 -14 -7 -28 -28z"/>
<path d="M3612 5405 c0 -16 2 -22 5 -12 2 9 2 23 0 30 -3 6 -5 -1 -5 -18z"/>
<path d="M3204 5303 c-55 -82 -55 -90 1 -15 25 35 45 66 42 68 -2 2 -22 -22
-43 -53z"/>
<path d="M3631 5344 c-1 -21 19 -88 24 -82 2 2 -3 26 -10 53 -8 28 -14 41 -14
29z"/>
<path d="M3930 5230 c12 -16 24 -30 26 -30 3 0 -4 14 -16 30 -12 17 -24 30
-26 30 -3 0 4 -13 16 -30z"/>
<path d="M3662 5220 c0 -14 2 -19 5 -12 2 6 2 18 0 25 -3 6 -5 1 -5 -13z"/>
<path d="M3139 5203 c-13 -16 -12 -17 4 -4 9 7 17 15 17 17 0 8 -8 3 -21 -13z"/>
<path d="M3960 5186 c0 -11 30 -39 36 -34 2 3 -5 13 -16 23 -11 10 -20 15 -20
11z"/>
<path d="M3110 5165 c-7 -9 -8 -15 -2 -15 5 0 12 7 16 15 3 8 4 15 2 15 -2 0
-9 -7 -16 -15z"/>
<path d="M3682 5145 c0 -16 2 -22 5 -12 2 9 2 23 0 30 -3 6 -5 -1 -5 -18z"/>
<path d="M3084 5128 c-4 -7 -14 -23 -22 -35 -9 -15 -10 -23 -3 -23 6 0 11 5
11 12 0 6 7 20 17 30 9 10 14 21 11 24 -3 3 -9 -1 -14 -8z"/>
<path d="M4015 5117 c10 -15 20 -25 23 -22 3 3 -5 16 -17 28 l-23 22 17 -28z"/>
<path d="M3701 5064 c0 -11 3 -14 6 -6 3 7 2 16 -1 19 -3 4 -6 -2 -5 -13z"/>
<path d="M4050 5075 c0 -4 9 -18 20 -32 11 -14 20 -22 20 -18 0 4 -9 18 -20
32 -11 14 -20 22 -20 18z"/>
<path d="M3015 5024 c-15 -19 -25 -38 -22 -40 4 -5 31 28 51 64 14 25 -2 11
-29 -24z"/>
<path d="M3712 5020 c0 -14 2 -19 5 -12 2 6 2 18 0 25 -3 6 -5 1 -5 -13z"/>
<path d="M4113 4994 c9 -11 17 -24 17 -28 0 -4 14 -21 31 -39 l32 -32 -34 48
c-18 26 -40 53 -49 60 -10 8 -10 5 3 -9z"/>
<path d="M3732 4960 c0 -19 2 -27 5 -17 2 9 2 25 0 35 -3 9 -5 1 -5 -18z"/>
<path d="M2962 4943 c-26 -38 -34 -53 -29 -53 2 0 16 18 31 40 29 45 28 56 -2
13z"/>
<path d="M3757 4855 c3 -22 7 -42 9 -44 8 -9 2 45 -6 64 -7 14 -8 8 -3 -20z"/>
<path d="M4200 4885 c0 -5 10 -21 21 -35 13 -17 17 -18 10 -5 -17 33 -31 51
-31 40z"/>
<path d="M2910 4865 c0 -8 2 -15 4 -15 2 0 6 7 10 15 3 8 1 15 -4 15 -6 0 -10
-7 -10 -15z"/>
<path d="M2886 4823 c-6 -14 -5 -15 5 -6 7 7 10 15 7 18 -3 3 -9 -2 -12 -12z"/>
<path d="M4250 4816 c0 -4 12 -24 27 -44 15 -20 28 -39 30 -41 2 -2 5 -2 8 1
3 3 0 12 -7 19 -7 8 -23 27 -36 43 -12 16 -22 26 -22 22z"/>
<path d="M3779 4762 c5 -34 6 -35 9 -8 2 16 0 32 -5 37 -5 5 -7 -7 -4 -29z"/>
<path d="M2832 4750 c-7 -11 -8 -20 -3 -20 9 0 24 30 18 36 -1 2 -8 -6 -15
-16z"/>
<path d="M3802 4690 c0 -14 4 -36 8 -50 l8 -25 0 25 c0 14 -4 36 -8 50 l-8 25
0 -25z"/>
<path d="M2752 4630 c-25 -33 -30 -56 -6 -25 18 24 36 55 31 55 -2 0 -13 -13
-25 -30z"/>
<path d="M4374 4653 c18 -35 136 -183 136 -170 0 8 -4 17 -8 19 -4 2 -30 32
-57 68 -60 77 -79 99 -71 83z"/>
<path d="M3832 4570 c0 -19 2 -27 5 -17 2 9 2 25 0 35 -3 9 -5 1 -5 -18z"/>
<path d="M2700 4555 c-7 -9 -11 -17 -9 -20 3 -2 10 5 17 15 14 24 10 26 -8 5z"/>
<path d="M2666 4504 c-9 -24 -2 -26 12 -4 7 11 8 20 3 20 -5 0 -12 -7 -15 -16z"/>
<path d="M3851 4495 c0 -11 4 -27 9 -35 9 -13 10 -13 9 0 0 8 -4 24 -9 35 l-9
20 0 -20z"/>
<path d="M2641 4464 c0 -11 3 -14 6 -6 3 7 2 16 -1 19 -3 4 -6 -2 -5 -13z"/>
<path d="M4520 4462 c0 -6 6 -17 13 -24 7 -7 22 -26 32 -41 10 -15 20 -26 22
-23 3 3 -11 26 -31 52 -20 26 -36 42 -36 36z"/>
<path d="M2605 4414 c-9 -14 -15 -27 -13 -30 2 -2 12 10 22 26 21 37 15 40 -9
4z"/>
<path d="M3881 4373 c-1 -17 4 -35 9 -38 6 -3 10 -16 11 -28 0 -12 3 -17 5
-10 3 6 -2 33 -10 60 -13 44 -15 45 -15 16z"/>
<path d="M2567 4363 c-4 -3 -7 -11 -7 -17 0 -6 5 -5 12 2 6 6 9 14 7 17 -3 3
-9 2 -12 -2z"/>
<path d="M4600 4356 c0 -7 42 -62 88 -114 14 -16 11 -8 -7 18 -37 54 -81 106
-81 96z"/>
<path d="M2536 4315 c-3 -8 -1 -15 4 -15 6 0 10 7 10 15 0 8 -2 15 -4 15 -2 0
-6 -7 -10 -15z"/>
<path d="M2480 4229 c-22 -34 -39 -64 -36 -66 2 -3 20 19 38 49 48 75 50 78
44 78 -3 0 -24 -28 -46 -61z"/>
<path d="M3912 4260 c0 -14 2 -19 5 -12 2 6 2 18 0 25 -3 6 -5 1 -5 -13z"/>
<path d="M3930 4194 c0 -16 5 -36 11 -44 7 -11 8 -4 3 25 -8 50 -14 58 -14 19z"/>
<path d="M4720 4206 c0 -4 16 -28 35 -53 19 -25 35 -43 35 -39 0 4 -16 28 -35
53 -19 25 -35 43 -35 39z"/>
<path d="M2416 4133 c-6 -14 -5 -15 5 -6 7 7 10 15 7 18 -3 3 -9 -2 -12 -12z"/>
<path d="M3952 4110 c0 -14 2 -19 5 -12 2 6 2 18 0 25 -3 6 -5 1 -5 -13z"/>
<path d="M2391 4094 c0 -11 3 -14 6 -6 3 7 2 16 -1 19 -3 4 -6 -2 -5 -13z"/>
<path d="M3960 4060 c0 -15 4 -30 9 -35 5 -6 11 -19 14 -30 2 -11 3 -2 0 19
-5 49 -22 84 -23 46z"/>
<path d="M4820 4073 c0 -6 7 -16 15 -23 8 -7 15 -18 15 -25 0 -7 7 -16 16 -19
13 -5 14 -3 7 6 -5 7 -19 26 -31 42 -12 16 -22 24 -22 19z"/>
<path d="M2341 4014 c0 -11 3 -14 6 -6 3 7 2 16 -1 19 -3 4 -6 -2 -5 -13z"/>
<path d="M4900 3962 c0 -5 7 -15 15 -22 8 -7 15 -8 15 -2 0 5 -7 15 -15 22 -8
7 -15 8 -15 2z"/>
<path d="M3999 3928 c4 -28 6 -29 9 -9 2 13 0 27 -5 32 -6 6 -7 -3 -4 -23z"/>
<path d="M4940 3911 c0 -5 5 -13 10 -16 6 -3 10 -2 10 4 0 5 -4 13 -10 16 -5
3 -10 2 -10 -4z"/>
<path d="M2236 3865 c-9 -14 -23 -37 -32 -52 l-16 -28 20 24 c24 29 55 81 49
81 -3 0 -12 -11 -21 -25z"/>
<path d="M4027 3819 c3 -24 7 -46 9 -48 9 -10 3 65 -5 78 -6 10 -8 -1 -4 -30z"/>
<path d="M4990 3848 c0 -3 16 -25 35 -48 19 -23 35 -38 35 -33 0 9 -70 91 -70
81z"/>
<path d="M2171 3769 c-1 -9 -8 -22 -16 -29 -8 -7 -15 -17 -15 -23 0 -5 9 2 21
17 11 14 18 32 16 39 -4 7 -6 6 -6 -4z"/>
<path d="M4051 3723 c-1 -17 4 -35 9 -38 11 -7 11 9 0 45 -8 24 -8 24 -9 -7z"/>
<path d="M5100 3703 c17 -30 63 -80 51 -57 -5 11 -17 26 -25 34 -9 7 -16 19
-16 26 0 8 -5 14 -10 14 -7 0 -7 -6 0 -17z"/>
<path d="M2071 3622 c-17 -27 -31 -53 -31 -58 0 -5 10 7 21 26 12 19 25 37 28
40 8 6 22 40 17 40 -2 0 -18 -22 -35 -48z"/>
<path d="M4076 3630 c8 -56 14 -64 14 -19 0 19 -5 41 -10 49 -7 10 -8 1 -4
-30z"/>
<path d="M5170 3616 c0 -4 9 -19 20 -33 11 -14 20 -21 20 -16 0 6 -9 20 -20
33 -11 13 -20 20 -20 16z"/>
<path d="M4102 3545 c0 -11 4 -31 8 -45 6 -20 8 -21 8 -5 0 11 -4 31 -8 45 -6
20 -8 21 -8 5z"/>
<path d="M5220 3552 c0 -7 10 -23 21 -35 19 -19 20 -20 11 -2 -22 39 -32 51
-32 37z"/>
<path d="M2011 3527 c-13 -21 -12 -21 5 -5 10 10 16 20 13 22 -3 3 -11 -5 -18
-17z"/>
<path d="M1972 3473 c-26 -38 -34 -53 -29 -53 2 0 16 18 31 40 29 45 28 56 -2
13z"/>
<path d="M5270 3485 c0 -6 38 -59 72 -100 42 -51 59 -69 52 -55 -11 22 -124
163 -124 155z"/>
<path d="M4131 3419 c0 -20 2 -39 6 -43 5 -4 13 -29 19 -54 61 -248 99 -383
102 -363 2 13 -1 33 -6 45 -6 12 -17 53 -27 91 -19 81 -25 107 -59 230 -13 50
-26 99 -29 110 -3 12 -5 5 -6 -16z"/>
<path d="M1921 3399 c-1 -9 -8 -22 -16 -29 -8 -7 -15 -17 -15 -23 0 -5 9 2 21
17 11 14 18 32 16 39 -4 7 -6 6 -6 -4z"/>
<path d="M1838 3274 c-39 -55 -49 -76 -23 -50 8 8 15 17 15 21 0 3 12 22 26
41 15 19 25 36 23 38 -2 2 -21 -20 -41 -50z"/>
<path d="M5415 3290 c3 -5 8 -10 11 -10 2 0 4 5 4 10 0 6 -5 10 -11 10 -5 0
-7 -4 -4 -10z"/>
<path d="M5440 3265 c0 -4 9 -18 20 -32 11 -14 20 -22 20 -18 0 4 -9 18 -20
32 -11 14 -20 22 -20 18z"/>
<path d="M5490 3190 c0 -5 5 -10 11 -10 5 0 7 5 4 10 -3 6 -8 10 -11 10 -2 0
-4 -4 -4 -10z"/>
<path d="M1774 3178 c-4 -7 -14 -24 -22 -38 -14 -24 -13 -24 3 -5 20 24 37 55
31 55 -3 0 -8 -6 -12 -12z"/>
<path d="M5516 3155 c4 -8 10 -15 15 -15 4 0 6 7 3 15 -4 8 -10 15 -15 15 -4
0 -6 -7 -3 -15z"/>
<path d="M5571 3087 c36 -52 72 -89 51 -52 -6 11 -28 38 -47 60 l-37 40 33
-48z"/>
<path d="M1721 3094 c0 -11 3 -14 6 -6 3 7 2 16 -1 19 -3 4 -6 -2 -5 -13z"/>
<path d="M1696 3065 c-9 -26 -7 -32 5 -12 6 10 9 21 6 23 -2 3 -7 -2 -11 -11z"/>
<path d="M5641 3005 c9 -22 55 -85 62 -85 5 0 -6 19 -24 43 -41 52 -43 54 -38
42z"/>
<path d="M1607 2929 c-27 -38 -44 -69 -40 -68 9 0 96 130 91 135 -2 1 -25 -28
-51 -67z"/>
<path d="M5716 2897 c3 -10 9 -15 12 -12 3 3 0 11 -7 18 -10 9 -11 8 -5 -6z"/>
<path d="M4276 2865 c8 -50 14 -58 14 -19 0 16 -5 36 -11 44 -7 11 -8 4 -3
-25z"/>
<path d="M5740 2874 c0 -13 18 -39 24 -34 2 3 -2 14 -10 24 -8 11 -14 16 -14
10z"/>
<path d="M1505 2779 c-20 -28 -34 -53 -32 -55 2 -2 20 21 41 51 46 69 40 72
-9 4z"/>
<path d="M5801 2787 c32 -46 49 -65 49 -53 0 6 -21 33 -58 75 -13 14 -9 4 9
-22z"/>
<path d="M4300 2765 c4 -25 10 -49 15 -53 9 -9 -4 80 -15 91 -4 4 -4 -13 0
-38z"/>
<path d="M1450 2699 c0 -6 -7 -17 -15 -25 -8 -9 -15 -20 -15 -27 0 -6 11 4 25
23 28 38 29 40 15 40 -5 0 -10 -5 -10 -11z"/>
<path d="M4324 2687 c3 -10 6 -30 6 -43 0 -13 4 -24 10 -24 12 0 1 61 -13 75
-7 7 -8 4 -3 -8z"/>
<path d="M5870 2695 c0 -3 12 -18 26 -33 l27 -27 -22 33 c-21 30 -31 39 -31
27z"/>
<path d="M1396 2613 c-6 -14 -5 -15 5 -6 7 7 10 15 7 18 -3 3 -9 -2 -12 -12z"/>
<path d="M5930 2615 c7 -9 15 -13 17 -11 7 7 -7 26 -19 26 -6 0 -6 -6 2 -15z"/>
<path d="M4352 2590 c0 -14 6 -41 13 -60 18 -46 18 -28 1 35 -9 30 -14 40 -14
25z"/>
<path d="M1371 2574 c0 -11 3 -14 6 -6 3 7 2 16 -1 19 -3 4 -6 -2 -5 -13z"/>
<path d="M5960 2586 c0 -9 61 -89 72 -94 5 -2 8 -10 8 -17 0 -7 3 -15 8 -17 4
-1 17 -16 30 -32 12 -16 22 -25 22 -21 0 7 -61 92 -97 135 -7 8 -19 24 -27 35
-9 11 -16 16 -16 11z"/>
<path d="M1327 2516 c-15 -24 -27 -47 -27 -52 0 -5 14 13 31 40 17 26 29 50
27 51 -2 2 -16 -15 -31 -39z"/>
<path d="M4381 2467 c-1 -9 14 -72 33 -140 19 -67 37 -131 40 -142 3 -11 3 -2
2 20 -2 22 -15 81 -29 130 -37 129 -45 152 -46 132z"/>
<path d="M1277 2441 c-4 -17 -3 -21 5 -13 5 5 8 16 6 23 -3 8 -7 3 -11 -10z"/>
<path d="M1237 2382 l-17 -37 20 24 c11 13 20 29 20 37 0 21 -3 17 -23 -24z"/>
<path d="M6110 2388 c0 -9 3 -18 8 -20 4 -1 17 -16 30 -32 12 -16 22 -25 22
-20 -1 17 -60 88 -60 72z"/>
<path d="M1201 2324 c0 -11 3 -14 6 -6 3 7 2 16 -1 19 -3 4 -6 -2 -5 -13z"/>
<path d="M1175 2289 c-4 -6 -5 -12 -2 -15 2 -3 7 2 10 11 7 17 1 20 -8 4z"/>
<path d="M6186 2287 c3 -10 9 -15 12 -12 3 3 0 11 -7 18 -10 9 -11 8 -5 -6z"/>
<path d="M6210 2250 c0 -5 5 -10 11 -10 5 0 7 5 4 10 -3 6 -8 10 -11 10 -2 0
-4 -4 -4 -10z"/>
<path d="M6230 2226 c0 -3 6 -11 13 -18 7 -7 23 -26 36 -43 29 -37 25 -23 -9
27 -22 33 -40 48 -40 34z"/>
<path d="M1100 2180 c-12 -17 -20 -34 -17 -36 3 -3 11 5 18 18 6 12 17 26 23
30 6 4 8 10 4 13 -3 3 -16 -8 -28 -25z"/>
<path d="M4472 2120 c0 -14 3 -34 8 -45 l9 -20 -1 20 c0 11 -4 31 -8 45 l-8
25 0 -25z"/>
<path d="M1052 2103 c-26 -38 -34 -53 -29 -53 2 0 16 18 31 40 29 45 28 56 -2
13z"/>
<path d="M6331 2093 c26 -34 39 -45 39 -34 0 12 -36 51 -46 51 -4 0 0 -8 7
-17z"/>
<path d="M4497 2014 c3 -21 10 -43 15 -49 6 -6 7 5 3 30 -10 52 -26 70 -18 19z"/>
<path d="M992 2020 c-18 -29 -15 -38 4 -12 9 13 14 25 12 27 -2 2 -9 -5 -16
-15z"/>
<path d="M6380 2033 c0 -5 9 -18 20 -28 11 -10 20 -15 20 -11 0 4 -9 16 -20
28 -11 12 -20 17 -20 11z"/>
<path d="M953 1963 c-4 -10 -13 -24 -20 -31 -7 -7 -13 -18 -13 -24 0 -6 8 0
18 13 20 26 35 59 26 59 -2 0 -8 -8 -11 -17z"/>
<path d="M4521 1935 c1 -11 5 -31 9 -45 8 -24 8 -24 9 5 0 17 -4 37 -9 45 -8
12 -10 11 -9 -5z"/>
<path d="M6460 1935 c0 -8 79 -115 86 -115 7 0 -4 18 -48 73 -21 27 -38 46
-38 42z"/>
<path d="M871 1837 c-13 -21 -12 -21 5 -5 10 10 16 20 13 22 -3 3 -11 -5 -18
-17z"/>
<path d="M4551 1808 c0 -20 3 -40 9 -43 5 -3 12 -28 16 -56 4 -27 11 -52 15
-55 5 -3 9 -18 9 -34 0 -16 5 -32 10 -35 6 -3 11 -18 11 -33 1 -15 3 -20 6
-11 4 15 -7 61 -42 179 -9 30 -20 71 -25 90 l-8 35 -1 -37z"/>
<path d="M6580 1777 c0 -4 8 -19 17 -33 14 -22 15 -27 2 -34 -8 -5 -23 -16
-34 -25 -16 -12 -13 -12 17 2 21 10 38 25 38 33 0 15 -39 72 -40 57z"/>
<path d="M799 1733 c-22 -46 -22 -50 1 -15 13 18 20 35 18 37 -3 3 -11 -7 -19
-22z"/>
<path d="M757 1673 c-4 -3 -7 -11 -7 -17 0 -6 5 -5 12 2 6 6 9 14 7 17 -3 3
-9 2 -12 -2z"/>
<path d="M6518 1653 c7 -3 16 -2 19 1 4 3 -2 6 -13 5 -11 0 -14 -3 -6 -6z"/>
<path d="M717 1611 c-24 -42 -21 -52 4 -13 12 18 20 35 17 37 -2 2 -12 -9 -21
-24z"/>
<path d="M6470 1625 c-7 -8 -20 -15 -29 -16 -10 0 -11 -2 -4 -6 7 -2 25 5 39
16 15 12 22 21 17 21 -6 0 -16 -7 -23 -15z"/>
<path d="M6400 1580 c-9 -6 -10 -10 -3 -10 6 0 15 5 18 10 8 12 4 12 -15 0z"/>
<path d="M658 1520 c-16 -21 -28 -42 -28 -46 0 -4 14 12 31 35 17 24 29 44 27
46 -2 2 -15 -14 -30 -35z"/>
<path d="M6350 1550 c0 -5 7 -7 15 -4 8 4 15 8 15 10 0 2 -7 4 -15 4 -8 0 -15
-4 -15 -10z"/>
<path d="M4631 1504 c0 -11 3 -14 6 -6 3 7 2 16 -1 19 -3 4 -6 -2 -5 -13z"/>
<path d="M6270 1495 c-7 -8 -9 -15 -6 -15 4 0 14 7 22 15 9 8 11 15 6 15 -5 0
-15 -7 -22 -15z"/>
<path d="M4646 1443 c3 -15 17 -66 30 -113 12 -47 25 -94 28 -105 3 -11 3 -2
1 20 -2 22 -11 67 -20 100 -9 33 -19 72 -22 88 -3 15 -9 30 -15 33 -5 3 -6 -6
-2 -23z"/>
<path d="M6193 1449 c-36 -23 -43 -32 -15 -22 16 7 61 43 51 43 -2 0 -19 -10
-36 -21z"/>
<path d="M598 1435 c-24 -33 -23 -43 2 -15 11 13 20 27 20 32 0 12 -3 10 -22
-17z"/>
<path d="M6128 1403 c7 -3 16 -2 19 1 4 3 -2 6 -13 5 -11 0 -14 -3 -6 -6z"/>
<path d="M545 1354 c-9 -14 -15 -27 -13 -30 2 -2 12 10 22 26 21 37 15 40 -9
4z"/>
<path d="M6058 1363 c-10 -2 -18 -9 -18 -14 0 -6 8 -5 20 1 11 6 20 13 20 15
0 3 -1 4 -2 4 -2 -1 -11 -3 -20 -6z"/>
<path d="M506 1293 c-6 -14 -5 -15 5 -6 7 7 10 15 7 18 -3 3 -9 -2 -12 -12z"/>
<path d="M5600 1290 c7 -14 9 -40 6 -69 -20 -145 -20 -140 7 -152 14 -6 34 -8
44 -4 16 6 15 9 -9 17 -15 5 -28 17 -30 26 -4 19 10 86 24 118 5 11 8 34 6 50
-2 23 -8 30 -31 32 -26 3 -28 2 -17 -18z"/>
<path d="M5784 1299 c-6 -8 -19 -53 -30 -101 -10 -49 -23 -88 -28 -88 -6 0 5
-11 24 -25 39 -29 60 -31 100 -10 42 22 37 28 -5 8 -33 -16 -36 -16 -56 3 -18
16 -20 25 -14 74 4 30 11 63 17 73 5 10 8 32 6 49 -2 25 -5 28 -14 17z"/>
<path d="M5910 1293 c0 -10 6 -35 14 -56 10 -29 15 -35 20 -22 8 21 8 59 0 79
-8 22 -34 20 -34 -1z"/>
<path d="M481 1254 c0 -11 3 -14 6 -6 3 7 2 16 -1 19 -3 4 -6 -2 -5 -13z"/>
<path d="M447 1209 c-9 -17 -17 -36 -17 -42 0 -7 9 6 21 27 24 45 21 58 -4 15z"/>
<path d="M4721 1175 c0 -11 9 -54 20 -95 11 -41 25 -93 30 -115 13 -53 19 -69
24 -64 2 3 -7 47 -22 99 -14 52 -31 118 -38 145 -7 28 -14 41 -14 30z"/>
<path d="M543 1133 c15 -2 39 -2 55 0 15 2 2 4 -28 4 -30 0 -43 -2 -27 -4z"/>
<path d="M813 1103 c15 -2 37 -2 50 0 12 2 0 4 -28 4 -27 0 -38 -2 -22 -4z"/>
<path d="M2630 1095 c7 -8 10 -29 7 -47 -10 -68 -29 -154 -37 -170 -5 -9 -12
-46 -16 -82 l-7 -66 39 1 c33 0 36 2 17 9 -25 10 -30 44 -14 96 5 16 14 56 21
89 6 33 15 74 20 90 4 17 11 45 15 63 6 31 5 32 -25 32 -28 0 -31 -2 -20 -15z"/>
<path d="M958 1083 c18 -2 45 -2 60 0 15 2 0 4 -33 4 -33 0 -45 -2 -27 -4z"/>
<path d="M1070 1070 c25 -8 87 -13 79 -6 -2 2 -26 6 -54 9 -34 4 -42 3 -25 -3z"/>
<path d="M1193 1053 c15 -2 37 -2 50 0 12 2 0 4 -28 4 -27 0 -38 -2 -22 -4z"/>
<path d="M1348 1033 c17 -2 47 -2 65 0 17 2 3 4 -33 4 -36 0 -50 -2 -32 -4z"/>
<path d="M1523 1013 c9 -2 25 -2 35 0 9 3 1 5 -18 5 -19 0 -27 -2 -17 -5z"/>
<path d="M1601 1006 c2 -2 29 -6 59 -10 38 -4 50 -3 40 4 -13 9 -109 15 -99 6z"/>
<path d="M1743 983 c15 -2 39 -2 55 0 15 2 2 4 -28 4 -30 0 -43 -2 -27 -4z"/>
<path d="M5418 952 c-71 -47 -85 -60 -33 -33 37 19 106 71 95 70 -3 0 -31 -17
-62 -37z"/>
<path d="M1893 963 c9 -2 25 -2 35 0 9 3 1 5 -18 5 -19 0 -27 -2 -17 -5z"/>
<path d="M2008 953 c6 -2 18 -2 25 0 6 3 1 5 -13 5 -14 0 -19 -2 -12 -5z"/>
<path d="M2137 933 c18 -2 50 -2 70 0 21 2 7 4 -32 4 -38 0 -55 -2 -38 -4z"/>
<path d="M2303 913 c15 -2 39 -2 55 0 15 2 2 4 -28 4 -30 0 -43 -2 -27 -4z"/>
<path d="M4802 860 c0 -19 2 -27 5 -17 2 9 2 25 0 35 -3 9 -5 1 -5 -18z"/>
<path d="M5300 875 c-9 -10 -9 -15 -1 -15 6 0 11 4 11 9 0 5 8 12 18 14 14 4
14 5 1 6 -9 0 -22 -6 -29 -14z"/>
<path d="M2925 835 c23 -8 133 -11 129 -3 -3 4 -35 8 -72 7 -37 0 -62 -2 -57
-4z"/>
<path d="M5219 823 c-13 -15 -12 -15 11 -3 34 17 36 20 18 20 -9 0 -22 -7 -29
-17z"/>
<path d="M3108 813 c12 -2 30 -2 40 0 9 3 -1 5 -23 4 -22 0 -30 -2 -17 -4z"/>
<path d="M3175 805 c25 -9 107 -12 94 -4 -8 5 -34 8 -59 8 -25 0 -40 -2 -35
-4z"/>
<path d="M4821 792 c0 -13 6 -47 14 -75 21 -75 25 -107 14 -107 -6 0 -8 -4 -4
-9 3 -6 18 -6 37 1 30 11 30 12 10 19 -12 5 -24 20 -28 36 -3 15 -12 48 -20
73 -7 25 -15 54 -17 65 -4 17 -5 17 -6 -3z"/>
<path d="M5160 785 c-19 -13 -38 -24 -42 -24 -4 -1 -16 -8 -25 -16 -10 -8 -27
-21 -38 -30 l-20 -15 20 7 c11 3 22 10 25 13 3 4 31 23 63 43 31 20 57 39 57
42 0 7 -1 7 -40 -20z"/>
<path d="M3333 783 c15 -2 39 -2 55 0 15 2 2 4 -28 4 -30 0 -43 -2 -27 -4z"/>
<path d="M3493 763 c9 -2 25 -2 35 0 9 3 1 5 -18 5 -19 0 -27 -2 -17 -5z"/>
<path d="M3627 751 c12 -6 61 -12 110 -15 66 -3 74 -3 33 3 -136 19 -165 21
-143 12z"/>
<path d="M3850 720 c0 -6 26 -10 57 -10 68 0 67 5 -4 13 -31 4 -53 2 -53 -3z"/>
<path d="M4079 687 c4 -4 37 -7 72 -5 l64 3 -72 5 c-40 3 -68 1 -64 -3z"/>
<path d="M5010 690 c-13 -8 -12 -10 3 -10 9 0 17 5 17 10 0 12 -1 12 -20 0z"/>
<path d="M4308 663 c18 -2 45 -2 60 0 15 2 0 4 -33 4 -33 0 -45 -2 -27 -4z"/>
<path d="M4930 640 c-13 -8 -13 -10 2 -10 9 0 20 5 23 10 8 13 -5 13 -25 0z"/>
<path d="M4528 633 c17 -2 47 -2 65 0 17 2 3 4 -33 4 -36 0 -50 -2 -32 -4z"/>
<path d="M4671 616 c2 -2 36 -6 74 -9 54 -4 61 -4 30 3 -40 9 -112 13 -104 6z"/>
</g>
</svg>
