<svg version="1.1" id="Layer_1" xmlns="http://www.w3.org/2000/svg" xmlns:xlink="http://www.w3.org/1999/xlink" x="0px" y="0px"
	 width="100%" viewBox="0 0 704 624" enable-background="new 0 0 704 624" xml:space="preserve">
<path fill="#000000" opacity="1.000000" stroke="none" 
	d="
M434.455200,565.513367 
	C418.836792,563.550537 403.662292,561.650574 388.482758,559.792297 
	C372.483856,557.833740 356.479401,555.920593 340.478668,553.976868 
	C323.962463,551.970520 307.442230,549.995178 290.939362,547.884216 
	C288.776520,547.607544 285.640900,547.496460 285.968140,544.219238 
	C286.346802,540.426880 289.501587,541.515869 291.867676,541.794739 
	C312.351410,544.208984 332.873108,546.359497 353.295837,549.215454 
	C371.231567,551.723633 389.184265,553.982361 407.174316,556.061340 
	C431.096344,558.825867 454.940918,562.261047 478.817719,565.416016 
	C480.291901,565.610840 481.762115,565.928589 483.127167,565.163818 
	C482.968475,559.520752 355.672821,69.395737 350.563599,62.212563 
	C310.545959,175.305984 264.551392,285.351288 222.677475,397.249298 
	C226.361847,399.379181 230.432449,399.248749 234.290878,399.751678 
	C262.665039,403.450073 291.052307,407.048248 319.438568,410.653442 
	C328.343567,411.784424 337.286835,412.653168 346.154938,414.016907 
	C350.035034,414.613586 350.703735,413.144867 350.688110,409.784302 
	C350.586548,387.965027 350.628479,366.145111 350.595612,344.325439 
	C350.585846,337.828339 350.484619,331.331360 350.430206,324.834290 
	C350.411194,322.564270 349.696808,319.403137 352.870300,319.223907 
	C356.441437,319.022217 356.070221,322.416290 356.075165,324.826080 
	C356.130554,351.823761 356.144012,378.821564 356.128754,405.819336 
	C356.123230,415.598053 356.080322,415.546692 365.589478,416.653076 
	C387.901825,419.249084 410.198822,421.965424 432.384705,425.520569 
	C435.354156,425.996399 438.239624,426.609283 441.012177,428.707275 
	C439.207733,430.667419 436.936310,430.256287 435.023651,430.073578 
	C424.756683,429.092804 414.495605,428.021790 404.256989,426.779877 
	C390.217896,425.076935 376.188782,423.279633 362.181122,421.337067 
	C357.579865,420.698944 355.944183,422.154999 356.038116,426.900513 
	C356.295288,439.894501 356.229065,452.897400 356.098480,465.894867 
	C356.061554,469.570251 356.529449,472.580627 359.703247,475.088409 
	C362.553925,477.340912 363.154572,480.739655 361.811096,484.197601 
	C360.719391,487.007507 358.759796,488.774017 355.481842,488.752594 
	C354.816010,485.956238 359.713257,483.824371 356.464172,481.590607 
	C354.464264,480.215698 350.885010,479.972748 348.814392,481.315399 
	C345.349304,483.562256 350.170807,485.743225 349.722290,488.205933 
	C343.593048,485.828827 342.387085,478.651642 347.736145,474.174561 
	C350.144836,472.158569 350.677704,470.138336 350.656616,467.310974 
	C350.550995,453.161957 350.460510,439.010071 350.660278,424.863373 
	C350.714661,421.011108 348.822968,419.903107 345.666351,419.510956 
	C334.437592,418.116058 323.208954,416.719818 311.980560,415.322052 
	C294.316376,413.123169 276.652649,410.920929 258.988312,408.723358 
	C246.768829,407.203156 234.546387,405.706329 222.330444,404.158417 
	C219.362778,403.782410 216.860489,404.590607 214.341949,406.216156 
	C181.320328,427.529510 148.306351,448.855682 115.173462,469.995300 
	C94.007248,483.499878 72.647369,496.700897 50.773884,510.414459 
	C56.850021,512.845276 63.026939,512.710632 68.930374,513.596252 
	C80.741135,515.367920 92.628555,516.630554 104.486763,518.083374 
	C120.328537,520.024231 136.241257,521.511108 151.996628,523.997070 
	C168.085556,526.535706 184.335373,527.609131 200.427979,530.195557 
	C210.223679,531.769836 220.166824,533.006165 230.110382,533.856750 
	C234.234085,534.209595 238.315521,535.072021 242.410614,535.736877 
	C244.078323,536.007690 245.251526,536.896729 245.055313,538.735229 
	C244.858337,540.580994 243.442551,541.250305 241.821091,541.149719 
	C236.839005,540.840515 231.819702,540.701233 226.895782,539.959106 
	C205.520706,536.737244 183.981461,534.793457 162.596695,531.776978 
	C147.965302,529.713196 133.265900,528.061707 118.650520,525.765381 
	C107.710526,524.046448 96.514946,523.303284 85.446159,522.032349 
	C72.401291,520.534485 59.382355,518.801392 46.367451,517.056335 
	C41.075935,516.346863 39.562626,512.549316 42.598183,508.041840 
	C68.542679,469.516998 94.487564,430.992401 120.438347,392.471802 
	C156.254379,339.307495 192.049118,286.128815 227.901886,232.989273 
	C265.431793,177.363953 303.021851,121.779221 340.577087,66.170975 
	C343.186615,62.307018 345.652191,58.344334 348.314423,54.517815 
	C351.981201,49.247402 354.384247,49.150894 358.261597,54.174545 
	C366.910553,65.380577 375.465546,76.659081 384.085907,87.887260 
	C409.225525,120.631920 434.405853,153.345383 459.518005,186.111069 
	C482.206177,215.713959 504.785004,245.400696 527.485107,274.994385 
	C559.612732,316.878571 591.821838,358.700256 623.966858,400.571167 
	C637.047424,417.609497 650.071411,434.691559 663.075562,451.788391 
	C666.282898,456.005157 665.933594,458.928619 661.432556,461.833740 
	C643.801086,473.213989 626.059875,484.424133 608.368774,495.712036 
	C606.712219,496.769043 604.942810,497.714691 603.622986,495.567352 
	C601.777283,492.564331 604.412659,491.453125 606.331482,490.228119 
	C621.766357,480.374603 637.234253,470.572784 652.659729,460.704803 
	C658.822754,456.762238 659.009766,455.571228 654.605347,449.828461 
	C619.135986,403.581665 583.669434,357.332764 548.175964,311.104492 
	C517.344788,270.948517 486.468506,230.827225 455.632599,190.674896 
	C424.104004,149.620575 392.600342,108.547134 361.027771,67.406532 
	C360.945282,71.482285 488.756226,559.946350 490.978424,563.606323 
	C498.057190,560.777527 503.951752,555.825073 510.383392,551.861816 
	C521.866760,544.785645 533.125549,537.344971 544.471191,530.045776 
	C546.302795,528.867371 548.366089,527.112366 550.044128,529.725769 
	C551.682556,532.277405 549.284241,533.672729 547.504700,534.816650 
	C529.154663,546.612732 510.776154,558.364807 492.388062,570.101624 
	C490.110779,571.555176 487.665680,572.548889 484.841461,572.174866 
	C468.194733,569.970581 451.545380,567.785889 434.455200,565.513367 
M129.238876,390.678406 
	C104.168144,427.821228 79.097404,464.964081 54.026661,502.106903 
	C65.237503,496.009613 75.570213,489.163452 85.989586,482.451782 
	C126.314972,456.476166 166.552597,430.360474 207.125015,404.776062 
	C213.835968,400.544250 217.437653,395.388306 220.160553,388.237335 
	C234.900391,349.527191 250.136093,311.006134 265.106018,272.383148 
	C278.160614,238.701813 290.976196,204.927551 304.106018,171.275726 
	C316.851990,138.607712 329.392426,105.854668 343.134766,73.516136 
	C341.732574,74.862656 340.464478,76.303627 339.403259,77.883553 
	C328.818970,93.641090 318.276184,109.426506 307.707581,125.194580 
	C277.486511,170.283554 247.308121,215.401245 217.019608,260.444855 
	C187.941376,303.688599 158.746262,346.853699 129.238876,390.678406 
z"/>
<path fill="#000000" opacity="1.000000" stroke="none" 
	d="
M590.860229,520.914795 
	C585.838989,525.120300 580.797852,526.887634 575.118530,523.050476 
	C573.157471,521.725464 571.633667,522.930969 570.042908,523.748413 
	C566.490234,525.574036 562.972961,525.979858 559.842834,523.067932 
	C556.811829,520.248169 556.572083,516.693665 557.802979,512.924866 
	C558.474609,510.868500 559.053223,508.777557 559.819214,506.757385 
	C560.702576,504.427734 560.836182,502.802856 557.840820,501.770905 
	C554.891174,500.754669 555.557617,498.731812 557.767151,497.488190 
	C560.262329,496.083832 563.047668,495.098022 565.751221,497.111145 
	C568.208557,498.940948 568.488098,501.474091 567.799316,504.291809 
	C567.088013,507.201508 566.491455,510.139465 565.859863,513.068359 
	C565.416138,515.126038 564.214783,517.669128 567.275269,518.478943 
	C569.937317,519.183350 571.821045,517.330505 572.520569,514.930603 
	C573.773743,510.631866 574.638245,506.220886 575.719788,501.870422 
	C576.035950,500.598724 576.350830,499.265198 576.996155,498.151062 
	C578.000427,496.417114 579.665894,495.577271 581.674133,496.182892 
	C583.897827,496.853394 584.185852,498.637024 583.741821,500.612701 
	C582.793884,504.830658 581.810913,509.040924 580.810669,513.246826 
	C580.385681,515.033508 579.578125,517.044067 581.550354,518.227661 
	C583.681091,519.506348 585.728699,518.660034 587.404968,516.972351 
	C591.242981,513.108093 591.670410,508.530396 590.132080,503.577820 
	C589.693054,502.164429 588.813049,500.842896 589.393433,499.264923 
	C590.073425,497.415863 591.247498,496.052429 593.311707,495.896576 
	C595.506958,495.730804 596.777466,497.089050 597.229309,499.028320 
	C599.164551,507.334381 596.164185,514.294983 590.860229,520.914795 
z"/>
<path fill="#000000" opacity="1.000000" stroke="none" 
	d="
M361.311829,300.669922 
	C364.922089,301.485016 365.221191,303.125061 362.626282,304.990601 
	C360.254456,306.695770 357.429749,307.588257 354.658478,305.906769 
	C352.061371,304.330963 351.473877,301.735840 352.179443,298.911743 
	C352.904236,296.010834 354.042206,293.195068 354.549133,290.264160 
	C354.885712,288.317902 355.987122,285.336884 353.184845,284.636658 
	C350.345062,283.927032 348.053345,285.828979 347.262970,288.754059 
	C346.178375,292.768005 345.143951,296.813202 344.432281,300.904846 
	C343.830261,304.366089 342.459778,306.762238 338.607361,306.024536 
	C334.371582,305.213440 336.067017,302.116699 336.647217,299.666687 
	C338.524170,291.740906 340.547546,283.849487 342.381348,275.914032 
	C342.970917,273.362915 343.718567,270.634064 341.129059,268.521667 
	C340.320709,267.862305 339.639313,266.815460 340.257385,265.896362 
	C342.623810,262.377594 346.279907,263.899658 349.409149,264.000732 
	C352.144958,264.089081 352.229584,266.153839 351.659271,268.423004 
	C350.895782,271.460693 350.366089,274.557159 349.793793,277.346771 
	C351.089874,278.864014 352.246674,278.077789 353.339600,277.953583 
	C360.661652,277.121216 363.544464,280.073273 362.370239,287.527802 
	C361.880707,290.635559 360.923248,293.674469 360.093994,296.721680 
	C359.687347,298.215912 359.103241,299.653931 361.311829,300.669922 
z"/>
<path fill="#000000" opacity="1.000000" stroke="none" 
	d="
M270.995483,520.684509 
	C268.945129,530.008972 267.072174,538.924377 264.950073,547.780151 
	C264.309235,550.454407 264.286957,552.023193 267.422363,553.032349 
	C270.220642,553.933044 269.942780,555.915833 267.481903,557.246155 
	C264.422577,558.900024 261.137756,559.669678 258.087158,557.377380 
	C255.449310,555.395203 255.694427,552.619568 256.413788,549.667542 
	C258.376373,541.613708 260.086945,533.498657 262.033051,525.440613 
	C262.508606,523.471375 262.579620,521.884521 260.790619,520.585144 
	C259.607880,519.726135 258.768616,518.527893 260.011230,517.251648 
	C262.431824,514.765442 265.636078,515.728455 268.520447,515.833496 
	C271.274963,515.933899 271.369476,518.105713 270.995483,520.684509 
z"/>
<path fill="#000000" opacity="1.000000" stroke="none" 
	d="
M638.999207,452.888702 
	C639.150879,454.570465 639.146790,454.640503 637.017456,454.516144 
	C629.723999,454.090210 622.415955,453.799805 615.145813,453.114136 
	C597.283875,451.429535 579.482239,449.222992 561.773682,446.313202 
	C559.678284,445.968872 557.528259,445.703796 555.728943,443.622681 
	C559.161255,440.873444 562.858337,441.842133 566.242981,442.194794 
	C576.316956,443.244324 586.367981,444.535645 596.408936,445.875244 
	C610.574646,447.765106 624.712585,449.848114 638.999207,452.888702 
z"/>
<path fill="#000000" opacity="1.000000" stroke="none" 
	d="
M355.694153,243.262360 
	C355.978973,246.207214 356.004944,248.694550 355.142792,251.097961 
	C354.787964,252.087051 354.146118,252.833252 352.995941,252.860123 
	C352.033661,252.882614 351.272034,252.273407 351.222473,251.438385 
	C350.620331,241.293488 351.040985,231.184921 352.399506,221.016754 
	C356.771118,227.887924 353.913452,235.683594 355.694153,243.262360 
z"/>
</svg>